<svg width="74" height="78.442" xmlns="http://www.w3.org/2000/svg">

 <g>
  <title>Layer 1</title>
  <g id="svg_2" fill="#e9f2ea">
   <path id="svg_3" d="m70.611,34.419c-2.119,-8.243 -8.654,-15.652 -18.09,-21.27c-2.556,-1.522 -9.71,-2.856 -10.994,-7c-1.284,-1.5 -1.5,0.642 -2.285,1.213c-1.928,-0.562 -1.856,-3.636 -4.142,-4.634c-1.144,1.07 -2.928,-0.573 -2.571,0.713c0.5,1.357 3.641,2.355 1.427,4.213c-2.781,0.355 -4.566,-9.354 -8.92,-7.139c-0.641,0.713 -0.071,1.783 -1.569,1.5c-1.714,0.716 4,4.283 -0.786,4.713c-4,-2.355 -5.211,-9.5 -8.781,-5.569c-0.5,1 -1.213,2.641 -2.713,2.5c-2.071,2.64 7.354,3.568 2,6.926c-3.355,1.426 -8.067,-3.07 -7.852,1c-0.5,1.786 -3.569,-2.571 -5.068,1.641c-1.214,3.713 2.141,3.713 2.141,4.356c-0.212,4.641 4.785,1.713 7.211,1.215c1.141,-0.215 2.355,-0.215 2.642,1.283c-0.286,2.928 -3.142,1.5 -3.783,3.5c0.142,2 2.069,0.073 2.283,2.215c2.784,4.569 5.069,-3.643 6.925,-4c1.428,0.713 0.286,4.281 0.215,4.711c1,2.928 1.927,-0.215 3.211,1.071c2.857,-1.285 1.714,-6.567 4.427,-6.854c1.856,-0.428 1.343,0.913 1.285,1.143s-1.285,1.928 -1,2.571c1.07,1.357 0.285,1.142 1.213,2.355a2.372,2.372 0 0 0 3.357,-1.428c0.427,0.214 0.641,0.072 0.927,0.285c3.282,-1.213 1.641,-6.709 3.926,-8.209c2.355,0.143 -0.5,3.5 0.215,4.141c0.927,1.143 1.212,-0.215 2.355,-0.642c3.641,1.07 1.5,-1.285 2.071,-3c0.927,-0.215 0.284,-1.215 1,-0.5c4.5,-0.427 -3.808,-11.164 12.635,-1.855c8.4,4.754 15.474,16.127 13.688,24.9l3.4,-6.058l0,-0.007z"/>
   <path id="svg_4" d="m70.614,34.394c-4.068,-9.782 -13.122,-15.242 -23.772,-11.28c-10.973,4.082 -17.562,25.13 -41.62,12.851c-5.497,23.629 12.209,42.477 33.767,42.477c26.2,-0.785 37.979,-27.269 31.626,-44.048l-0.001,0zm-15.991,16.063a12.708,12.708 0 0 1 0,-25.415a12.708,12.708 0 1 1 0,25.415z"/>
  </g>
 </g>
</svg>